HIERARCHY
ROOT Hips
{
  OFFSET -558.044 91.6267 1269.1
  CHANNELS 6 Xposition Yposition Zposition Zrotation Xrotation Yrotation
  JOINT Spine
  {
    OFFSET -3.93732e-05 8 8.78931e-05
    CHANNELS 6 Xposition Yposition Zposition Zrotation Xrotation Yrotation
    JOINT Spine1
    {
      OFFSET 0.00134997 8.00001 0.000181263
      CHANNELS 6 Xposition Yposition Zposition Zrotation Xrotation Yrotation
      JOINT Spine2
      {
        OFFSET 0.00224421 8 0.0030499
        CHANNELS 6 Xposition Yposition Zposition Zrotation Xrotation Yrotation
        JOINT Spine3
        {
          OFFSET 0 8 0
          CHANNELS 6 Xposition Yposition Zposition Zrotation Xrotation Yrotation
          JOINT Neck
          {
            OFFSET -2.7584e-05 17 -0.000185872
            CHANNELS 6 Xposition Yposition Zposition Zrotation Xrotation Yrotation
            JOINT Head
            {
              OFFSET 7.91724e-05 10.8 -5.16131e-05
              CHANNELS 6 Xposition Yposition Zposition Zrotation Xrotation Yrotation
              End Site
              {
                OFFSET 0 20.25 0
              }
            }
          }
          JOINT LeftShoulder
          {
            OFFSET 4.99996 17 0
            CHANNELS 6 Xposition Yposition Zposition Zrotation Xrotation Yrotation
            JOINT LeftShoulder2
            {
              OFFSET 6.45 0 0
              CHANNELS 6 Xposition Yposition Zposition Zrotation Xrotation Yrotation
              JOINT LeftArm
              {
                OFFSET 6.44997 7.66297e-05 -0.000560422
                CHANNELS 6 Xposition Yposition Zposition Zrotation Xrotation Yrotation
                JOINT LeftForeArm
                {
                  OFFSET -0.00423209 -32.4049 -1.99333
                  CHANNELS 6 Xposition Yposition Zposition Zrotation Xrotation Yrotation
                  JOINT LeftHand
                  {
                    OFFSET 0.000258529 -25.6499 1.99974
                    CHANNELS 6 Xposition Yposition Zposition Zrotation Xrotation Yrotation
                    JOINT LeftHandThumb1
                    {
                      OFFSET -0.500952 -1.49657 2.65132
                      CHANNELS 6 Xposition Yposition Zposition Zrotation Xrotation Yrotation
                      JOINT LeftHandThumb2
                      {
                        OFFSET 0.00549495 -3.80185 3.68965
                        CHANNELS 6 Xposition Yposition Zposition Zrotation Xrotation Yrotation
                        JOINT LeftHandThumb3
                        {
                          OFFSET -0.00142458 -2.99763 2.70128
                          CHANNELS 6 Xposition Yposition Zposition Zrotation Xrotation Yrotation
                          End Site
                          {
                            OFFSET -0.000897243 -2.29795 1.80045
                          }
                        }
                      }
                    }
                    JOINT LeftHandIndex
                    {
                      OFFSET 0.000773618 -1.90004 1.60059
                      CHANNELS 6 Xposition Yposition Zposition Zrotation Xrotation Yrotation
                      JOINT LeftHandIndex1
                      {
                        OFFSET -0.0014134 -8.29833 1.9001
                        CHANNELS 6 Xposition Yposition Zposition Zrotation Xrotation Yrotation
                        JOINT LeftHandIndex2
                        {
                          OFFSET -0.000466725 -4.49892 -0.000115433
                          CHANNELS 6 Xposition Yposition Zposition Zrotation Xrotation Yrotation
                          JOINT LeftHandIndex3
                          {
                            OFFSET 0.000775237 -3.39974 6.87293e-05
                            CHANNELS 6 Xposition Yposition Zposition Zrotation Xrotation Yrotation
                            End Site
                            {
                              OFFSET -0.000205873 -2.60092 3.44493e-05
                            }
                          }
                        }
                      }
                    }
                    JOINT LeftHandMiddle
                    {
                      OFFSET -0.249305 -2.20001 0.400288
                      CHANNELS 6 Xposition Yposition Zposition Zrotation Xrotation Yrotation
                      JOINT LeftHandMiddle1
                      {
                        OFFSET 0.000212351 -8.30106 0.999525
                        CHANNELS 6 Xposition Yposition Zposition Zrotation Xrotation Yrotation
                        JOINT LeftHandMiddle2
                        {
                          OFFSET -0.000207747 -4.65022 0.000562935
                          CHANNELS 6 Xposition Yposition Zposition Zrotation Xrotation Yrotation
                          JOINT LeftHandMiddle3
                          {
                            OFFSET 6.38381e-05 -3.30143 -0.000615052
                            CHANNELS 6 Xposition Yposition Zposition Zrotation Xrotation Yrotation
                            End Site
                            {
                              OFFSET -0.00198004 -2.69815 0
                            }
                          }
                        }
                      }
                    }
                    JOINT LeftHandRing
                    {
                      OFFSET -0.499231 -2.14795 -0.798419
                      CHANNELS 6 Xposition Yposition Zposition Zrotation Xrotation Yrotation
                      JOINT LeftHandRing1
                      {
                        OFFSET -0.000649373 -7.74521 -0.19812
                        CHANNELS 6 Xposition Yposition Zposition Zrotation Xrotation Yrotation
                        JOINT LeftHandRing2
                        {
                          OFFSET 0.00765886 -3.79399 -0.00419213
                          CHANNELS 6 Xposition Yposition Zposition Zrotation Xrotation Yrotation
                          JOINT LeftHandRing3
                          {
                            OFFSET -0.000234091 -3.40103 0.00208336
                            CHANNELS 6 Xposition Yposition Zposition Zrotation Xrotation Yrotation
                            End Site
                            {
                              OFFSET 0.00124592 -2.59992 -0.00124691
                            }
                          }
                        }
                      }
                    }
                    JOINT LeftHandPinky
                    {
                      OFFSET -0.750743 -1.74768 -1.8491
                      CHANNELS 6 Xposition Yposition Zposition Zrotation Xrotation Yrotation
                      JOINT LeftHandPinky1
                      {
                        OFFSET 0.000886554 -7.14902 -1.00048
                        CHANNELS 6 Xposition Yposition Zposition Zrotation Xrotation Yrotation
                        JOINT LeftHandPinky2
                        {
                          OFFSET -0.000115987 -3.00003 0.000105311
                          CHANNELS 6 Xposition Yposition Zposition Zrotation Xrotation Yrotation
                          JOINT LeftHandPinky3
                          {
                            OFFSET 0.000607761 -2.34996 -0.000113904
                            CHANNELS 6 Xposition Yposition Zposition Zrotation Xrotation Yrotation
                            End Site
                            {
                              OFFSET 0.000880759 -2.10034 -0.000414202
                            }
                          }
                        }
                      }
                    }
                  }
                }
              }
            }
          }
          JOINT RightShoulder
          {
            OFFSET -5.00007 17 -0.000395587
            CHANNELS 6 Xposition Yposition Zposition Zrotation Xrotation Yrotation
            JOINT RightShoulder2
            {
              OFFSET -6.45 0 0
              CHANNELS 6 Xposition Yposition Zposition Zrotation Xrotation Yrotation
              JOINT RightArm
              {
                OFFSET -6.45001 -0.000111663 -0.00043488
                CHANNELS 6 Xposition Yposition Zposition Zrotation Xrotation Yrotation
                JOINT RightForeArm
                {
                  OFFSET 0.0108372 -32.421 -2.00641
                  CHANNELS 6 Xposition Yposition Zposition Zrotation Xrotation Yrotation
                  JOINT RightHand
                  {
                    OFFSET 2.47695e-05 -25.6499 2.00058
                    CHANNELS 6 Xposition Yposition Zposition Zrotation Xrotation Yrotation
                    JOINT RightHandThumb1
                    {
                      OFFSET 0.499838 -1.4998 2.65021
                      CHANNELS 6 Xposition Yposition Zposition Zrotation Xrotation Yrotation
                      JOINT RightHandThumb2
                      {
                        OFFSET 0.000129909 -3.79993 3.70011
                        CHANNELS 6 Xposition Yposition Zposition Zrotation Xrotation Yrotation
                        JOINT RightHandThumb3
                        {
                          OFFSET 0.000326926 -2.99887 2.70032
                          CHANNELS 6 Xposition Yposition Zposition Zrotation Xrotation Yrotation
                          End Site
                          {
                            OFFSET 0.00251936 -2.30499 1.79878
                          }
                        }
                      }
                    }
                    JOINT RightHandIndex
                    {
                      OFFSET -0.00104709 -1.90097 1.59914
                      CHANNELS 6 Xposition Yposition Zposition Zrotation Xrotation Yrotation
                      JOINT RightHandIndex1
                      {
                        OFFSET 1.91033e-05 -8.29994 1.89994
                        CHANNELS 6 Xposition Yposition Zposition Zrotation Xrotation Yrotation
                        JOINT RightHandIndex2
                        {
                          OFFSET 0.000609043 -4.49918 -0.00211799
                          CHANNELS 6 Xposition Yposition Zposition Zrotation Xrotation Yrotation
                          JOINT RightHandIndex3
                          {
                            OFFSET -0.000938577 -3.3967 -0.00138303
                            CHANNELS 6 Xposition Yposition Zposition Zrotation Xrotation Yrotation
                            End Site
                            {
                              OFFSET -0.00015338 -2.59976 -3.68792e-05
                            }
                          }
                        }
                      }
                    }
                    JOINT RightHandMiddle
                    {
                      OFFSET 0.247765 -2.1994 0.398599
                      CHANNELS 6 Xposition Yposition Zposition Zrotation Xrotation Yrotation
                      JOINT RightHandMiddle1
                      {
                        OFFSET -0.00174175 -8.29884 1.00199
                        CHANNELS 6 Xposition Yposition Zposition Zrotation Xrotation Yrotation
                        JOINT RightHandMiddle2
                        {
                          OFFSET -0.00501106 -4.64991 -0.000961147
                          CHANNELS 6 Xposition Yposition Zposition Zrotation Xrotation Yrotation
                          JOINT RightHandMiddle3
                          {
                            OFFSET -0.000131015 -3.30027 0
                            CHANNELS 6 Xposition Yposition Zposition Zrotation Xrotation Yrotation
                            End Site
                            {
                              OFFSET 0.00494031 -2.70266 -0.00453237
                            }
                          }
                        }
                      }
                    }
                    JOINT RightHandRing
                    {
                      OFFSET 0.500846 -2.14957 -0.799438
                      CHANNELS 6 Xposition Yposition Zposition Zrotation Xrotation Yrotation
                      JOINT RightHandRing1
                      {
                        OFFSET -0.00147744 -7.74934 -0.198687
                        CHANNELS 6 Xposition Yposition Zposition Zrotation Xrotation Yrotation
                        JOINT RightHandRing2
                        {
                          OFFSET -0.00252369 -3.79938 0.000684912
                          CHANNELS 6 Xposition Yposition Zposition Zrotation Xrotation Yrotation
                          JOINT RightHandRing3
                          {
                            OFFSET 0.000661931 -3.39988 0.000657076
                            CHANNELS 6 Xposition Yposition Zposition Zrotation Xrotation Yrotation
                            End Site
                            {
                              OFFSET -0.00439421 -2.60257 0.00135715
                            }
                          }
                        }
                      }
                    }
                    JOINT RightHandPinky
                    {
                      OFFSET 0.750839 -1.75042 -1.85083
                      CHANNELS 6 Xposition Yposition Zposition Zrotation Xrotation Yrotation
                      JOINT RightHandPinky1
                      {
                        OFFSET 0.000569324 -7.15014 -0.999548
                        CHANNELS 6 Xposition Yposition Zposition Zrotation Xrotation Yrotation
                        JOINT RightHandPinky2
                        {
                          OFFSET -0.00147784 -3.00209 0.00244528
                          CHANNELS 6 Xposition Yposition Zposition Zrotation Xrotation Yrotation
                          JOINT RightHandPinky3
                          {
                            OFFSET 0.00179924 -2.35438 -0.0011126
                            CHANNELS 6 Xposition Yposition Zposition Zrotation Xrotation Yrotation
                            End Site
                            {
                              OFFSET -0.00396216 -2.0991 0.00357446
                            }
                          }
                        }
                      }
                    }
                  }
                }
              }
            }
          }
        }
      }
    }
  }
  JOINT LeftUpLeg
  {
    OFFSET 7.99999 0 0
    CHANNELS 6 Xposition Yposition Zposition Zrotation Xrotation Yrotation
    JOINT LeftLeg
    {
      OFFSET -0.000160754 -44.9998 -1.00021
      CHANNELS 6 Xposition Yposition Zposition Zrotation Xrotation Yrotation
      JOINT LeftFoot
      {
        OFFSET -0.00245201 -40.9994 -2.00349
        CHANNELS 6 Xposition Yposition Zposition Zrotation Xrotation Yrotation
        JOINT LeftToeBase
        {
          OFFSET 0.00248215 -7.49994 12.5023
          CHANNELS 6 Xposition Yposition Zposition Zrotation Xrotation Yrotation
          JOINT LeftFootToe
          {
            OFFSET 0 0 4
            CHANNELS 6 Xposition Yposition Zposition Zrotation Xrotation Yrotation
            End Site
            {
              OFFSET 0 0 0
            }
          }
        }
      }
    }
  }
  JOINT RightUpLeg
  {
    OFFSET -7.99999 0 0
    CHANNELS 6 Xposition Yposition Zposition Zrotation Xrotation Yrotation
    JOINT RightLeg
    {
      OFFSET -8.6238e-05 -45.0001 -1.00012
      CHANNELS 6 Xposition Yposition Zposition Zrotation Xrotation Yrotation
      JOINT RightFoot
      {
        OFFSET 7.07436e-05 -41 -1.99991
        CHANNELS 6 Xposition Yposition Zposition Zrotation Xrotation Yrotation
        JOINT RightToeBase
        {
          OFFSET -0.00107739 -7.49969 12.5017
          CHANNELS 6 Xposition Yposition Zposition Zrotation Xrotation Yrotation
          JOINT RightFootToe
          {
            OFFSET 0 0 4
            CHANNELS 6 Xposition Yposition Zposition Zrotation Xrotation Yrotation
            End Site
            {
              OFFSET 0 0 0
            }
          }
        }
      }
    }
  }
}
MOTION
Frames:	3
Frame Time:	0.0111111
-540.675 93.0009 1258.41 -1.01833 -1.03137 -134.56 0 8 1.7053e-13 -1.95417 3.11406 2.10708 -2.27374e-13 8 -1.7053e-13 -0.191861 0.588477 1.11535 0 8 1.13687e-13 -0.0945633 0.289151 0.557495 2.27374e-13 8 1.13687e-13 -0.0944717 0.289808 0.557383 0 17 0 -1.05773 3.6264 15.6743 0 10.8 -5.68434e-14 0.948216 -6.56152 37.0806 5 17 1.7053e-13 -4.42939 5.27459 -6.38347 6.45 -2.84217e-14 0 -2.38497 0.389329 -2.83626 6.45 -1.13687e-13 0 61.3026 -32.9682 86.1838 0 -32.4 -2 -62.6894 -30.8837 -11.2485 0 -25.65 2 51.9848 42.1685 5.5875 -0.5 -1.5 2.65 -28.2127 -63.2015 -12.0168 -1.13687e-13 -3.8 3.7 30.3418 37.4957 -2.14158 0 -3 2.7 0.0279071 12.9723 -0.00035902 2.27374e-13 -1.9 1.6 8.18999e-07 -1.33649e-06 -6.66996e-07 -1.13687e-13 -8.3 1.9 -9.60805 22.8681 2.39771 1.13687e-13 -4.5 -2.27374e-13 -41.0902 0.0415819 0.0287306 0 -3.4 0 -29.0285 0.0112565 0.0395607 -0.25 -2.2 0.4 8.18999e-07 -1.33649e-06 -6.66996e-07 2.27374e-13 -8.3 1 -43.3759 16.8048 9.61553 5.68434e-14 -4.65 2.27374e-13 -82.7289 -0.0773163 0.061546 0 -3.3 2.27374e-13 -90.0002 -2.84548e-05 -2.61499e-05 -0.5 -2.15 -0.8 8.18999e-07 -1.33649e-06 -6.66996e-07 0 -7.75 -0.2 -12.4019 4.92314 1.12643 0 -3.8 0 -89.6896 -0.00797387 -0.0082673 -1.13687e-13 -3.4 -2.27374e-13 -89.7205 0.00830003 -0.00697785 -0.75 -1.75 -1.85 8.18999e-07 -1.33649e-06 -6.66996e-07 -2.27374e-13 -7.15 -1 -20.0819 -2.41912 0.403755 -1.13687e-13 -3 0 -17.3511 0.0705053 0.00358171 0 -2.35 -2.27374e-13 -13.9885 0.0470401 0.0136023 -5 17 -1.13687e-13 7.52735 9.17764 0.59564 -6.45 -5.68434e-14 -2.27374e-13 -1.77453 -0.395981 -2.44051 -6.45 -2.84217e-14 0 -76.6024 -1.88957 3.07228 -5.68434e-14 -32.4 -2 0.738537 -36.4614 -14.9793 0 -25.65 2 -14.4738 -12.1968 -3.85334 0.5 -1.5 2.65 18.5459 47.203 -114.35 -2.27374e-13 -3.8 3.7 -13.73 34.118 -1.66779 -1.13687e-13 -3 2.7 0.0748318 35.7653 -0.0769505 5.68434e-14 -1.9 1.6 -5.83524e-07 1.1369e-05 -1.22139e-05 1.13687e-13 -8.3 1.9 6.36896 -3.59645 0.20238 0 -4.5 0 12.5377 2.74018 0.0568323 4.54747e-13 -3.4 0 11.1106 -0.0105548 0.0346956 0.25 -2.2 0.4 -5.83524e-07 1.1369e-05 -1.22139e-05 -5.68434e-14 -8.3 1 4.28945 -1.78693 0.0232606 5.68434e-14 -4.65 0 45.5595 51.9275 15.4762 0 -3.3 -8.52651e-14 61.1466 -0.140016 0.0770364 0.5 -2.15 -0.8 -5.83524e-07 1.1369e-05 -1.22139e-05 0 -7.75 -0.2 2.92731 6.87941 -0.314654 2.84217e-13 -3.8 -5.68434e-14 5.68562 48.8462 41.7281 2.27374e-13 -3.4 0 78.1577 -0.108797 0.115807 0.75 -1.75 -1.85 -5.83524e-07 1.1369e-05 -1.22139e-05 5.68434e-14 -7.15 -1 3.00013 12.9056 -0.652614 0 -3 -1.13687e-13 35.1015 36.1252 8.614 0 -2.35 0 43.6285 -0.0998029 -0.0538542 8 0 1.7053e-13 26.9584 -15.503 15.3309 0 -45 -1 -22.9087 16.8802 12.1445 0 -41 -2 5.18972 7.7236 -21.7578 -2.27374e-13 -7.5 12.5 4.64016e-05 -5.70007 0.000456099 -2.27374e-13 1.42109e-14 4 0.585107 9.47921 46.2526 -8 0 -1.13687e-13 -8.41349 -3.73985 -15.4734 2.27374e-13 -45 -1 -6.85645 -2.62398 -4.11724 -1.13687e-13 -41 -2 11.7865 8.40994 8.47637 2.27374e-13 -7.5 12.5 -0.00589584 0.00152195 -0.00323737 0 3.55271e-15 4 -7.98365 -1.25051 49.7232 
-541.088 92.9896 1258.78 -0.992972 -1.01246 -134.402 0 8 1.7053e-13 -1.97857 3.24282 2.12036 -2.27374e-13 8 5.68434e-14 -0.154085 0.595795 1.13938 0 8 1.13687e-13 -0.0756253 0.289151 0.569554 0 8 1.13687e-13 -0.0756724 0.289986 0.569905 0 17 -1.13687e-13 -0.989641 3.57451 15.6733 2.27374e-13 10.8 -5.68434e-14 0.927554 -6.66312 37.077 5 17 0 -4.37809 5.24827 -6.30574 6.45 0 0 -2.39548 0.396692 -2.84538 6.45 -2.84217e-14 0 61.0788 -32.8659 86.4546 -2.27374e-13 -32.4 -2 -62.7598 -30.8588 -11.1554 0 -25.65 2 52.7774 42.2051 5.32275 -0.5 -1.5 2.65 -28.561 -63.0435 -11.5674 -2.27374e-13 -3.8 3.7 30.3414 37.4937 -2.1412 5.68434e-14 -3 2.7 0.0279765 12.394 -8.1997e-05 2.27374e-13 -1.9 1.6 8.18999e-07 -1.33649e-06 -6.66996e-07 1.13687e-13 -8.3 1.9 -9.09892 22.3194 2.22044 2.27374e-13 -4.5 0 -40.2036 -0.0203774 -0.0540537 -2.84217e-14 -3.4 0 -28.3235 0.0051936 -0.0340659 -0.25 -2.2 0.4 8.18999e-07 -1.33649e-06 -6.66996e-07 1.13687e-13 -8.3 1 -44.7233 16.0032 9.65239 1.13687e-13 -4.65 2.27374e-13 -80.6681 -0.0946185 0.0665533 0 -3.3 4.54747e-13 -90.0002 -2.84548e-05 -2.61499e-05 -0.5 -2.15 -0.8 8.18999e-07 -1.33649e-06 -6.66996e-07 -1.13687e-13 -7.75 -0.2 -14.8404 5.12386 1.36761 0 -3.8 0 -89.9059 -0.00290415 -0.00234893 -5.68434e-14 -3.4 -2.27374e-13 -89.9318 0.00176539 6.58891e-05 -0.75 -1.75 -1.85 8.18999e-07 -1.33649e-06 -6.66996e-07 -3.41061e-13 -7.15 -1 -25.2987 -2.1918 0.630249 -1.13687e-13 -3 -2.27374e-13 -16.2086 0.0855436 0.0104651 1.13687e-13 -2.35 0 -13.2022 0.0569711 0.0202858 -5 17 -1.13687e-13 7.64277 9.23391 0.754931 -6.45 -5.68434e-14 -2.27374e-13 -1.76228 -0.405476 -2.42706 -6.45 -2.84217e-14 -5.68434e-14 -77.0709 -1.53251 3.23908 -5.68434e-14 -32.4 -2 1.83471 -36.9945 -13.8628 5.68434e-14 -25.65 2 -14.5204 -12.0806 -3.86797 0.5 -1.5 2.65 18.4935 47.0007 -115.494 0 -3.8 3.7 -13.6525 34.0145 -1.69491 -1.13687e-13 -3 2.7 0.0748318 35.7653 -0.0769505 2.84217e-14 -1.9 1.6 -5.83524e-07 1.1369e-05 -1.22139e-05 5.68434e-14 -8.3 1.9 7.72645 -2.60091 0.179932 0 -4.5 0 11.601 2.53419 0.0715414 5.68434e-13 -3.4 -1.13687e-13 10.3717 -0.0184812 0.0495328 0.25 -2.2 0.4 -5.83524e-07 1.1369e-05 -1.22139e-05 -5.68434e-14 -8.3 1 5.61902 -0.272633 -0.0367621 -5.68434e-14 -4.65 1.13687e-13 44.0761 54.0537 17.7185 1.13687e-13 -3.3 -8.52651e-14 63.0928 -0.133893 0.0678751 0.5 -2.15 -0.8 -5.83524e-07 1.1369e-05 -1.22139e-05 5.68434e-14 -7.75 -0.2 4.12649 8.19268 -0.483591 2.27374e-13 -3.8 0 4.75895 48.9801 42.96 1.13687e-13 -3.4 2.84217e-14 79.8527 -0.108719 0.108022 0.75 -1.75 -1.85 -5.83524e-07 1.1369e-05 -1.22139e-05 2.84217e-14 -7.15 -1 3.95333 13.7548 -0.84367 0 -3 -5.68434e-14 35.1824 37.9292 9.74295 1.13687e-13 -2.35 1.13687e-13 45.3693 -0.102793 -0.0600012 8 -1.42109e-14 5.68434e-14 26.6159 -15.4427 15.3832 0 -45 -1 -22.9134 16.8745 12.1413 0 -41 -2 5.01839 6.97995 -21.9852 -2.27374e-13 -7.5 12.5 4.12954e-05 -5.0611 0.00045562 0 0 4 0.403221 9.10902 46.2138 -8 -2.13163e-14 0 -9.24691 -3.69804 -14.9919 0 -45 -1 -6.02261 -2.20212 -4.26091 0 -41 -2 11.7235 7.94796 7.46705 0 -7.5 12.5 -0.00589584 0.00152195 -0.00323737 0 0 4 -8.07852 -1.4894 49.6315 
-541.46 92.9762 1259.16 -0.965334 -0.989116 -134.283 0 8 -5.68434e-14 -1.98767 3.37064 2.15998 0 8 -1.7053e-13 -0.120937 0.600351 1.17375 0 8 1.13687e-13 -0.0589889 0.28915 0.586778 0 8 1.7053e-13 -0.0586872 0.290238 0.58717 0 17 -5.68434e-14 -0.926329 3.52039 15.6724 0 10.8 0 0.899334 -6.76451 37.0706 5 17 -5.68434e-14 -4.34366 5.22328 -6.2266 6.45 -2.84217e-14 0 -2.40531 0.405885 -2.85764 6.45 -5.68434e-14 -1.13687e-13 60.8761 -32.7121 86.7316 0 -32.4 -2 -63.0156 -30.7332 -11.024 0 -25.65 2 53.651 42.2242 5.09628 -0.5 -1.5 2.65 -29.1215 -62.7392 -11.2769 0 -3.8 3.7 30.3261 37.488 -2.13429 1.13687e-13 -3 2.7 0.0220571 11.9879 -0.00304791 1.13687e-13 -1.9 1.6 8.18999e-07 -1.33649e-06 -6.66996e-07 -1.13687e-13 -8.3 1.9 -8.6912 21.8697 2.08677 2.27374e-13 -4.5 2.27374e-13 -41.0995 -0.08932 -0.0957097 0 -3.4 0 -28.8763 -0.0190917 -0.086291 -0.25 -2.2 0.4 8.18999e-07 -1.33649e-06 -6.66996e-07 3.41061e-13 -8.3 1 -46.7425 14.8913 9.68904 5.68434e-14 -4.65 2.27374e-13 -78.329 -0.110861 0.0795507 -1.13687e-13 -3.3 0 -90.0002 -2.84548e-05 -2.61499e-05 -0.5 -2.15 -0.8 8.18999e-07 -1.33649e-06 -6.66996e-07 0 -7.75 -0.2 -17.7199 5.16537 1.65991 1.13687e-13 -3.8 -2.27374e-13 -90.0195 -0.000154202 0.000989853 -5.68434e-14 -3.4 0 -90.0388 -0.00159209 0.00367948 -0.75 -1.75 -1.85 8.18999e-07 -1.33649e-06 -6.66996e-07 -2.27374e-13 -7.15 -1 -31.0702 -2.11591 0.965449 -2.27374e-13 -3 0 -15.0781 0.0902908 0.0154232 0 -2.35 0 -12.4171 0.0599329 0.0242861 -5 17 -5.68434e-14 7.74351 9.29208 0.904679 -6.45 -2.84217e-14 -1.13687e-13 -1.74876 -0.415556 -2.41731 -6.45 0 -1.13687e-13 -77.5294 -1.17024 3.46386 0 -32.4 -2 2.8216 -37.5188 -12.8551 0 -25.65 2 -14.5538 -11.9517 -3.80478 0.5 -1.5 2.65 18.5248 46.7746 -116.702 -2.27374e-13 -3.8 3.7 -13.6151 33.9652 -1.70785 -1.13687e-13 -3 2.7 0.074372 35.7653 -0.0769505 5.68434e-14 -1.9 1.6 -5.83524e-07 1.1369e-05 -1.22139e-05 5.68434e-14 -8.3 1.9 9.27988 -1.62987 0.120193 0 -4.5 1.13687e-13 10.5917 2.31316 0.0842915 4.54747e-13 -3.4 0 9.55307 -0.0245511 0.0625106 0.25 -2.2 0.4 -5.83524e-07 1.1369e-05 -1.22139e-05 -5.68434e-14 -8.3 1 7.28511 1.11724 -0.15968 0 -4.65 0 42.4267 55.9032 20.0079 2.27374e-13 -3.3 -5.68434e-14 64.8689 -0.121467 0.0573156 0.5 -2.15 -0.8 -5.83524e-07 1.1369e-05 -1.22139e-05 5.68434e-14 -7.75 -0.2 5.87505 9.42219 -0.763028 2.27374e-13 -3.8 -1.13687e-13 4.15437 49.0441 43.7587 2.27374e-13 -3.4 -5.68434e-14 80.906 -0.0756236 0.0771942 0.75 -1.75 -1.85 -5.83524e-07 1.1369e-05 -1.22139e-05 5.68434e-14 -7.15 -1 5.56188 14.6063 -1.17544 0 -3 -5.68434e-14 35.0868 39.3699 10.7674 -2.27374e-13 -2.35 5.68434e-14 46.7377 -0.0874446 -0.0537022 8 -2.84217e-14 -1.13687e-13 26.2848 -15.4204 15.327 0 -45 -1 -22.9113 16.8611 12.1458 -2.27374e-13 -41 -2 4.81858 6.28599 -22.0786 -2.27374e-13 -7.5 12.5 3.57186e-05 -4.36181 0.000455162 0 0 4 0.245196 8.67516 46.1794 -8 -2.13163e-14 -5.68434e-14 -10.0667 -3.6526 -14.4611 0 -45 -1 -5.13245 -1.82026 -4.41429 1.13687e-13 -41 -2 11.5888 7.45953 6.28046 0 -7.5 12.5 -0.00589584 0.00152195 -0.00323737 0 0 4 -8.10816 -1.7179 49.6196 
